<?xml version="1.0" encoding="UTF-8"?>
<svg xmlns="http://www.w3.org/2000/svg" version="1.1" viewBox="0 0 100 100">
  <!-- Generator: Adobe Illustrator 28.6.0, SVG Export Plug-In . SVG Version: 1.2.0 Build 709)  -->
  <g>
    <g id="Livello_1">
      <g id="FI0I3E">
        <path d="M92.19,99.99c-.08-10.02-3.2-19-9.6-26.7-7.1-8.55-16.19-13.77-27.29-15.1-12.83-1.54-24.13,2.05-33.71,10.74-7.86,7.13-12.31,16.06-13.53,26.59-.17,1.48-.17,2.99-.24,4.48H0c0-.98,0-1.95,0-2.93.26-1.92.45-3.86.78-5.77,1.84-10.52,6.64-19.5,14.23-26.99,5.12-5.05,11.07-8.81,17.84-11.29.2-.07.46-.07.61-.37-8.06-6.07-12.44-14.08-12.31-24.28.1-7.84,3.05-14.6,8.66-20.07,11.81-11.53,29.93-10.68,40.82.37,12.15,12.32,11.03,33.56-3.94,43.93,20.83,8.93,32.53,24.31,33.33,47.4h-7.81ZM49.91,49.99c11.55.08,21.05-9.33,21.18-20.95.12-11.57-9.35-21.15-21-21.23-11.55-.08-21.05,9.33-21.18,20.95-.12,11.57,9.35,21.15,21,21.23Z"/>
      </g>
    </g>
  </g>
</svg>