<?xml version="1.0" encoding="UTF-8"?>
<svg xmlns="http://www.w3.org/2000/svg" version="1.1" viewBox="0 0 100 100">
  <!-- Generator: Adobe Illustrator 28.6.0, SVG Export Plug-In . SVG Version: 1.2.0 Build 709)  -->
  <g>
    <g id="Livello_1">
      <g id="Y301EI">
        <g>
          <path d="M64.23,0c.54.35.98.82,1.42,1.28,6.82,7.15,13.63,14.3,20.47,21.43.79.83,1.14,1.69,1.14,2.86-.03,23.91-.03,47.82,0,71.72,0,1.28-.33,2.22-1.58,2.7H14.32c-1.25-.48-1.58-1.42-1.58-2.7.02-31.57.02-63.15,0-94.72,0-1.02.15-1.91.99-2.57h50.49ZM16.5,49.9c0,15.1,0,30.21-.01,45.31,0,.79.11,1.12,1.03,1.12,21.67-.03,43.34-.03,65.01,0,.76,0,.98-.19.98-.97-.02-22.62-.02-45.25,0-67.87,0-.8-.27-.96-1-.95-6.08.03-12.15.02-18.23.01-1.93,0-2.59-.65-2.59-2.57,0-6.45-.02-12.89.02-19.34,0-.89-.27-1.07-1.1-1.06-14.33.02-28.65.03-42.98,0-.97,0-1.17.3-1.16,1.21.03,15.04.02,30.08.02,45.12ZM65.54,6.69c-.27.36-.17.66-.18.94,0,4.72.01,9.44-.02,14.16,0,.82.23,1.04,1.03,1.03,4.42-.04,8.83-.02,13.25-.02.31,0,.65.12,1-.22-5.02-5.29-10.04-10.58-15.08-15.88Z"/>
          <path d="M46.71,59.82c7.31,0,14.62,0,21.92,0,1.82,0,2.75.66,2.72,1.92-.03,1.22-.97,1.87-2.69,1.87-14.68,0-29.36,0-44.04,0-1.71,0-2.67-.68-2.68-1.89-.01-1.21.96-1.91,2.65-1.91,7.37,0,14.75,0,22.12,0Z"/>
          <path d="M46.78,44.7c-7.34,0-14.68,0-22.02,0-.42,0-.85-.02-1.26-.1-.93-.18-1.38-.79-1.42-1.71-.04-.89.53-1.66,1.4-1.86.41-.09.84-.12,1.25-.12,14.68,0,29.37,0,44.05,0,1.73,0,2.65.66,2.66,1.89,0,1.23-.92,1.91-2.64,1.91-7.34,0-14.68,0-22.02,0Z"/>
          <path d="M46.95,50.42c7.31,0,14.62,0,21.92,0,.45,0,.9-.02,1.35.12.9.27,1.36.93,1.33,1.81-.03.88-.52,1.54-1.43,1.74-.41.09-.84.11-1.26.11-14.68,0-29.36,0-44.04,0-1.71,0-2.67-.69-2.67-1.9,0-1.19.99-1.9,2.67-1.9,7.37,0,14.75,0,22.12,0Z"/>
          <path d="M35.27,28.46c-3.41,0-6.82,0-10.23,0-.23,0-.45,0-.68,0-1.38-.06-2.18-.72-2.21-1.83-.03-1.11.86-1.95,2.22-1.95,7.31-.02,14.61-.02,21.92,0,1.37,0,2.28.8,2.28,1.9,0,1.1-.91,1.88-2.29,1.89-3.67.02-7.34,0-11.01,0Z"/>
          <path d="M35.43,71.9c3.41,0,6.81,0,10.22,0,.19,0,.39,0,.58,0,1.38.03,2.29.75,2.33,1.85.04,1.12-.89,1.93-2.33,1.94-4.61.02-9.22,0-13.82,0-2.56,0-5.13,0-7.69,0-.49,0-.99,0-1.43-.21-.71-.32-1.13-.92-1.12-1.69,0-.81.45-1.41,1.21-1.72.43-.17.88-.18,1.34-.18,3.57,0,7.14,0,10.71,0Z"/>
        </g>
      </g>
    </g>
  </g>
</svg>