<?xml version="1.0" encoding="UTF-8"?>
<svg xmlns="http://www.w3.org/2000/svg" version="1.1" viewBox="0 0 100 100">
  <!-- Generator: Adobe Illustrator 28.6.0, SVG Export Plug-In . SVG Version: 1.2.0 Build 709)  -->
  <g>
    <g id="Livello_1">
      <g id="_x32_wUfNy">
        <path d="M60.03.09c2.01.37,4.05.59,6.03,1.16,12.19,3.49,21.3,14.19,22.12,26.82.72,11.08.58,22.18-2.67,32.99-1.97,6.55-4.67,12.75-8.32,18.53-.36.57-.53,1.13-.53,1.82.02,5.92,0,11.85.03,17.77,0,.74-.19.91-.92.91-15.03-.02-30.06-.02-45.09,0-.74,0-.99-.15-.98-.95.04-5.73,0-11.46.04-17.18,0-.63-.2-1-.71-1.35-3.08-2.08-6.17-4.13-9.19-6.29-11.38-8.14-9.92-25.09,2.66-31.25.17-.09.34-.18.56-.29-.11-.15-.2-.28-.3-.39-3.62-3.69-5.13-8.16-4.73-13.26.83-10.48,5.63-18.66,14.48-24.39,3.97-2.57,8.37-4.02,13.09-4.49.25-.03.5-.11.75-.17,4.57,0,9.13,0,13.7,0ZM52.73,76.64c6.19,0,12.39,0,18.58,0,.46,0,.83,0,1.14-.5,5.77-9.44,9.06-19.68,9.89-30.71.35-4.65.12-9.3.19-13.95.02-1.66-.13-3.31-.39-4.95-1.6-10.03-10.11-18.55-20.13-20.2-3.6-.59-7.22-.3-10.83-.37-2.28-.04-4.55,0-6.82.37-11.85,1.94-21.04,13.2-20.5,25.16.21,4.74,3.91,8.92,8.61,9.63,2.85.43,5.73.15,8.59.17,4.33.03,7.74,1.76,10.19,5.33.27.4.55.56,1.03.55,1.34-.03,2.67,0,4.01-.02,6.5-.07,12.18-4.44,13.96-10.68.55-1.94.58-3.91.55-5.9,0-.44-.06-.82.62-.8,1.56.04,3.13.02,4.69,0,.42,0,.58.13.57.56-.03.81.02,1.63-.01,2.44-.34,8.05-4.04,14.04-11.1,17.93-3.56,1.96-7.44,2.49-11.44,2.31-.68-.03-.92.1-.98.87-.43,5.87-5.26,10.65-11.03,10.83-3.91.12-7.82.02-11.74.05-.61,0-.68-.25-.67-.75.03-1.4.06-2.8-.01-4.2-.04-.82.27-.94.99-.94,3.52.03,7.04.03,10.56.01,3.44-.01,6.05-2.54,6.07-5.83.01-3.33-2.61-5.87-6.1-5.89-3.62-.01-7.24,0-10.86,0-.92,0-1.83.08-2.71.31-5.08,1.32-8.37,4.52-9.4,9.63-1.03,5.12.75,9.38,5,12.47,3.13,2.28,6.39,4.39,9.58,6.59.5.35,1.01.51,1.62.5,6.1-.02,12.19-.01,18.29-.01ZM64.39,94.22c1.86,0,3.72-.02,5.57.01.6.01.85-.1.84-.78-.04-3.38-.03-6.77,0-10.15,0-.64-.18-.81-.82-.81-3.62.03-7.24,0-10.85.02-3.35.02-5.94,2.59-5.95,5.84,0,3.25,2.58,5.83,5.92,5.87,1.76.02,3.52,0,5.28,0ZM48.86,82.5c-4.32,0-8.46.02-12.6-.02-.71,0-.69.34-.69.84.01,3.35.03,6.7-.01,10.06,0,.7.2.86.87.86,3.75-.03,7.5-.02,11.25-.02.35,0,.69,0,1.18,0-2.07-3.93-2.05-7.77-.01-11.72Z"/>
      </g>
    </g>
  </g>
</svg>